<?xml version="1.0" encoding="utf-8"?>
<!-- Generator: Adobe Illustrator 21.0.2, SVG Export Plug-In . SVG Version: 6.00 Build 0)  -->
<svg version="1.1" id="Layer_1" xmlns="http://www.w3.org/2000/svg" xmlns:xlink="http://www.w3.org/1999/xlink" x="0px" y="0px"
	 viewBox="0 0 488.5 34.4" style="enable-background:new 0 0 488.5 34.4;" xml:space="preserve">
<style type="text/css">
	.st0{enable-background:new    ;}
	.st1{fill:#3B3B3B;}
</style>
<title>Artboard 1</title>
<g class="st0">
	<path class="st1" d="M10.7,5.9L18,20.7l7.3-14.8h4.4v22.3h-3.5l0-16.7l-7,14.3h-2.5l-7-14.3v16.7H6.2V5.9H10.7z"/>
	<path class="st1" d="M48.8,23.2H37.6l-2.1,5h-3.9l9.8-22.3h3.9L55,28.2h-4L48.8,23.2z M47.4,19.8l-4.2-9.9L39,19.8H47.4z"/>
	<path class="st1" d="M70.8,28.2l-4.1-6.8c-0.3,0-0.7,0-1,0h-5.3v6.7h-3.8V5.9h9.1c5.7,0,9,2.8,9,7.6c0,3.6-1.7,6.1-4.6,7.2l5,7.5
		H70.8z M65.7,18.1c3.4,0,5.4-1.5,5.4-4.5c0-2.9-2-4.3-5.4-4.3h-5.3v8.8H65.7z"/>
	<path class="st1" d="M88.4,9.2c-4.5,0-8,3.4-8,7.8c0,4.4,3.5,7.9,8,7.9c2.2,0,4.5-1,6.2-2.6l2.2,2.5c-2.3,2.2-5.5,3.7-8.6,3.7
		c-6.5,0-11.6-4.9-11.6-11.3c0-6.3,5.1-11.2,11.7-11.2c3.2,0,6.3,1.3,8.5,3.4L94.6,12C93,10.2,90.6,9.2,88.4,9.2z"/>
	<path class="st1" d="M103.1,5.9v9.7H115V5.9h3.8v22.3H115V19h-11.8v9.2h-3.8V5.9H103.1z"/>
	<path class="st1" d="M146.6,5.9l0,3.4h-11.2v6.4h10.1v3.3h-10.1v9.1h-3.8V5.9H146.6z"/>
	<path class="st1" d="M170.4,17.1c0,6.4-5.2,11.3-11.8,11.3s-11.8-4.9-11.8-11.3c0-6.4,5.2-11.3,11.8-11.3S170.4,10.7,170.4,17.1z
		 M150.6,17.1c0,4.4,3.7,7.9,8,7.9c4.4,0,7.9-3.5,7.9-7.9s-3.6-7.9-7.9-7.9C154.2,9.2,150.6,12.6,150.6,17.1z"/>
	<path class="st1" d="M187.3,28.2l-4.1-6.8c-0.3,0-0.7,0-1,0h-5.3v6.7h-3.8V5.9h9.1c5.7,0,9,2.8,9,7.6c0,3.6-1.7,6.1-4.6,7.2l5,7.5
		H187.3z M182.2,18.1c3.4,0,5.4-1.5,5.4-4.5c0-2.9-2-4.3-5.4-4.3h-5.3v8.8H182.2z"/>
	<path class="st1" d="M210.3,9.3c-2.2,0-3.6,0.8-3.6,2.3c0,4.9,12,2.3,12,10.3c0,4-3.5,6.4-8.4,6.4c-3.5,0-6.8-1.4-9.1-3.5l1.6-3.3
		c2.3,2.1,5.2,3.3,7.6,3.3c2.6,0,4.2-1,4.2-2.7c0-5-12-2.2-12-10.1c0-3.8,3.3-6.2,8.1-6.2c2.9,0,5.7,0.9,7.8,2.3l-1.6,3.3
		C214.4,9.9,212,9.3,210.3,9.3z"/>
	<path class="st1" d="M231.7,9.2c-4.5,0-8,3.4-8,7.8c0,4.4,3.5,7.9,8,7.9c2.2,0,4.5-1,6.2-2.6l2.2,2.5c-2.3,2.2-5.5,3.7-8.6,3.7
		c-6.5,0-11.6-4.9-11.6-11.3c0-6.3,5.1-11.2,11.7-11.2c3.2,0,6.3,1.3,8.5,3.4l-2.2,2.7C236.3,10.2,234,9.2,231.7,9.2z"/>
	<path class="st1" d="M246.5,5.9v22.3h-3.8V5.9H246.5z"/>
	<path class="st1" d="M267,5.9v3.4h-12.2v6.1h10.9v3.3h-10.9v6.2h12.6v3.4h-16.3V5.9H267z"/>
	<path class="st1" d="M274.4,5.9l12,16v-16h3.7v22.3h-3.7l-11.9-16v16h-3.8V5.9H274.4z"/>
	<path class="st1" d="M304.6,9.2c-4.5,0-8,3.4-8,7.8c0,4.4,3.5,7.9,8,7.9c2.2,0,4.5-1,6.2-2.6l2.2,2.5c-2.3,2.2-5.5,3.7-8.6,3.7
		c-6.5,0-11.6-4.9-11.6-11.3c0-6.3,5.1-11.2,11.7-11.2c3.2,0,6.3,1.3,8.5,3.4l-2.2,2.7C309.2,10.2,306.9,9.2,304.6,9.2z"/>
	<path class="st1" d="M331.5,5.9v3.4h-12.2v6.1h10.9v3.3h-10.9v6.2h12.6v3.4h-16.3V5.9H331.5z"/>
	<path class="st1" d="M353.5,9.2c-4.5,0-8,3.4-8,7.8c0,4.4,3.5,7.9,8,7.9c2.2,0,4.5-1,6.2-2.6l2.2,2.5c-2.3,2.2-5.5,3.7-8.6,3.7
		c-6.5,0-11.6-4.9-11.6-11.3c0-6.3,5.1-11.2,11.7-11.2c3.2,0,6.3,1.3,8.5,3.4l-2.2,2.7C358.1,10.2,355.7,9.2,353.5,9.2z"/>
	<path class="st1" d="M368.2,5.9v9.7H380V5.9h3.8v22.3H380V19h-11.8v9.2h-3.8V5.9H368.2z"/>
	<path class="st1" d="M392.2,5.9v22.3h-3.8V5.9H392.2z"/>
</g>
<g class="st0">
	<path class="st1" d="M406.7,9.2c-4.5,0-8,3.4-8,7.8c0,4.4,3.5,7.9,8,7.9c2.2,0,4.5-1,6.2-2.6l2.2,2.5c-2.3,2.2-5.5,3.7-8.6,3.7
		c-6.5,0-11.6-4.9-11.6-11.3c0-6.3,5.1-11.2,11.7-11.2c3.2,0,6.3,1.3,8.5,3.4l-2.2,2.7C411.3,10.2,409,9.2,406.7,9.2z"/>
</g>
<g class="st0">
	<path class="st1" d="M432,23.2h-11.3l-2.1,5h-3.9l9.8-22.3h3.9l9.8,22.3h-4L432,23.2z M430.5,19.8l-4.2-9.9l-4.2,9.9H430.5z"/>
</g>
<g class="st0">
	<path class="st1" d="M454.5,17.3h3.3v8.2c-2.3,1.7-5.6,2.9-8.7,2.9c-6.6,0-11.7-4.9-11.7-11.3s5.2-11.3,12-11.3
		c3.2,0,6.4,1.2,8.6,3.1l-2.1,2.8c-1.7-1.6-4.1-2.5-6.4-2.5c-4.6,0-8.1,3.5-8.1,7.9c0,4.5,3.6,7.9,8.2,7.9c1.7,0,3.5-0.6,5.1-1.5
		V17.3z"/>
	<path class="st1" d="M483.6,17.1c0,6.4-5.2,11.3-11.8,11.3S460,23.4,460,17.1c0-6.4,5.2-11.3,11.8-11.3S483.6,10.7,483.6,17.1z
		 M463.8,17.1c0,4.4,3.7,7.9,8,7.9s7.9-3.5,7.9-7.9s-3.6-7.9-7.9-7.9C467.4,9.2,463.8,12.6,463.8,17.1z"/>
</g>
</svg>
