<svg id="Layer_1" data-name="Layer 1" xmlns="http://www.w3.org/2000/svg" viewBox="0 0 512 512">
  <defs>
    <style>
      .cls-1 {
        fill: #68b6e5;
      }

      .cls-2 {
        fill: #CA2127;
      }
    </style>
  </defs>
  <title>Artboard 1</title>
  <path class="cls-1" d="M263,495.95a24,24,0,0,1-23.77-20.62l-.23-1.61-1.47-.69c-10.51-4.91-20.6-13.36-30-25.11s-17.78-26.34-25.11-43.61l-.94-2.21-2.37.44A242.91,242.91,0,0,1,134.77,407a155.62,155.62,0,0,1-25.55-2,101.36,101.36,0,0,1-21.52-5.93c-13-5.33-22.65-13.21-28.56-23.43a48.67,48.67,0,0,1-4.67-11.05,55.44,55.44,0,0,1-2-12.23,81.15,81.15,0,0,1,3.81-27.58A145.44,145.44,0,0,1,70,294.13a238.77,238.77,0,0,1,22.9-32.32l1.59-1.91L92.94,258a229.46,229.46,0,0,1-25.33-36.9c-5.63-10.44-10.24-20.2-12-30.06-.8-4.56,3.84-7.73,5.66-8.18a8.26,8.26,0,0,1,7.69,1.72c1.08.82,1.87,2,3.21,5.35,2.82,8,5.22,16.37,9.7,25.29a183.72,183.72,0,0,0,20.24,31.07l2.14,2.71,2.38-2.5a403.72,403.72,0,0,1,48.56-43.16l1-.8.12-1.31a428.87,428.87,0,0,1,11.37-67l.84-3.27-3.35-.44a194.26,194.26,0,0,0-25-1.73c-12,0-22.72,1.36-31.9,4-9.57,2.79-17.47,7-23.46,12.57l-1.21,1.12.31,1.63a24,24,0,1,1-14.47-17.78L71,131l1.37-1c7.14-5.42,16.11-9.58,26.66-12.36a141.21,141.21,0,0,1,35.7-4.15,232.54,232.54,0,0,1,35.34,2.9l2.52.39.78-2.43a265.7,265.7,0,0,1,16.74-40.84,161,161,0,0,1,20.58-31.1c7.42-8.59,15.28-15.19,23.36-19.63a56.7,56.7,0,0,1,12.39-5.07,49.1,49.1,0,0,1,9.77-1.63v.09h3A48.72,48.72,0,0,1,272,17.86a56.7,56.7,0,0,1,12.38,5.06c8.08,4.43,15.94,11,23.35,19.61a160.88,160.88,0,0,1,20.57,31.08,265.52,265.52,0,0,1,16.74,40.81l.78,2.43,2.53-.39A232.58,232.58,0,0,1,384,113.52c14,0,30.94,2.61,36.87,5.18,4.26,1.86,4.76,6.18,3.92,9.07s-5,7.88-10.92,6.11c-9.87-3.36-21.68-5.06-35.17-5.06a194.7,194.7,0,0,0-25.34,1.77L350,131l.84,3.27a428.68,428.68,0,0,1,11.38,66.94l.12,1.31,1,.8a403.79,403.79,0,0,1,48.83,43.39l2.37,2.5,2.14-2.7a204.25,204.25,0,0,0,14.73-21,136.64,136.64,0,0,0,10.2-20.28c5.38-13.62,7.1-26,5.13-36.79l-.33-1.79-1.74-.53A24,24,0,1,1,467,161.58l-1.24,1,.18,1.6c2.89,26-11.35,59.46-40.11,94.07l-1.59,1.91,1.59,1.91a238.43,238.43,0,0,1,22.85,32.28A145.25,145.25,0,0,1,462.42,325a81.08,81.08,0,0,1,3.79,27.55,55.43,55.43,0,0,1-2,12.21,48.66,48.66,0,0,1-4.66,11l0,.08c-5.92,10.18-15.49,18-28.46,23.35a100.92,100.92,0,0,1-21.47,5.92,155,155,0,0,1-25.5,2h0A243.59,243.59,0,0,1,339,402.58l-2.37-.45-.94,2.22a207,207,0,0,1-17.52,33.22,116,116,0,0,1-16.1,20c-3.42,2.7-9.76.32-11.3-2-1.69-2.57-2.87-8.14.6-11.57a95.89,95.89,0,0,0,14.39-16.16,160.56,160.56,0,0,0,14.78-25.68l1.53-3.27-3.49-.9a411.12,411.12,0,0,1-58.18-19.93l-1.17-.5-1.17.5A410,410,0,0,1,199.6,398l-3.5.89,1.52,3.27c6.26,13.46,13.3,24.76,20.92,33.57,7.93,9.17,16.42,15.57,25.23,19l1.73.68,1.37-1.25A24,24,0,1,1,263,495.95ZM412.11,273.75A407.3,407.3,0,0,1,359.42,320l-1,.73-.19,1.21a377.87,377.87,0,0,1-15.19,63l-1.14,3.34,3.48.58a204.61,204.61,0,0,0,33.11,2.93c15.1,0,28.1-2.14,38.65-6.35,11.18-4.47,19.43-11.19,24.53-20h0A43.62,43.62,0,0,0,447.3,346a66.78,66.78,0,0,0-2.92-22.32,117.86,117.86,0,0,0-10.48-24.22A195.45,195.45,0,0,0,416.62,274l-2.14-2.71Zm-309.93-.06a196.25,196.25,0,0,0-17.31,25.48,118.19,118.19,0,0,0-10.51,24.24,66.82,66.82,0,0,0-3,22.34A43.56,43.56,0,0,0,77,365.32a42.14,42.14,0,0,0,10.17,11.8,55.61,55.61,0,0,0,14.35,8.21c10.56,4.21,23.6,6.35,38.74,6.35a204.12,204.12,0,0,0,32.47-2.82l3.49-.57-1.14-3.35a377.83,377.83,0,0,1-15.3-63.71L159.6,320l-1-.73A406,406,0,0,1,106.7,273.5L104.32,271Zm233.88,62.63c-7.81,5.11-15.93,10.1-24.11,14.83-9.38,5.42-19,10.56-28.57,15.3l-6.2,3.07,6.48,2.42A363.54,363.54,0,0,0,325,384.73l2.61.63.91-2.52a322.23,322.23,0,0,0,12.13-43.4l1.48-7.08Zm-158.54,2.51a323.31,323.31,0,0,0,12.19,44l.91,2.52,2.61-.63a362.55,362.55,0,0,0,41.57-12.8l6.48-2.41-6.2-3.07c-8.56-4.24-17.14-8.81-25.56-13.61l.12-.21L207,351.12c-8.48-4.9-16.88-10.08-25-15.39l-6-4Zm34-1.42,2.58,1.49A485.64,485.64,0,0,0,258,361.39l1.22.55,1.22-.55a484.76,484.76,0,0,0,44.41-22.7c13.66-7.89,26.91-16.4,39.38-25.29l1.05-.75.18-1.28a474.14,474.14,0,0,0,4.28-64.2c0-14-.35-25.25-1.09-35.54l-.1-1.39-1.13-.82c-12.67-9.21-26.17-18-40.15-26.17l.05-.09-2.6-1.5a487.56,487.56,0,0,0-44-22.48l-1.22-.55-1.22.55a459.31,459.31,0,0,0-87.18,50.15l-1.12.82-.1,1.38c-.85,11.69-1.28,23.67-1.28,35.63a478,478,0,0,0,4.16,63.58l.17,1.28,1,.75c11.93,8.55,24.58,16.76,37.65,24.41Zm152.44-109c.15,4,.1,8,0,12.23,0,2.13-.06,4.33-.06,6.51,0,15.67-.72,31.33-2.15,46.54l-.67,7.11,5.54-4.52a360.06,360.06,0,0,0,36.49-34l1.88-2-1.88-2A355.71,355.71,0,0,0,368.83,226l-5.14-4.25ZM149.67,226a356.8,356.8,0,0,0-34,32l-1.88,2,1.88,2a359.26,359.26,0,0,0,35.79,33.43L157,300l-.65-7.12c-1.37-15-2.07-30.35-2.07-45.75V247c0-6.19.11-12.45.34-18.59l.24-6.68ZM333,134.14a352.34,352.34,0,0,0-49,14.52l-6.48,2.42,6.2,3.07c9.47,4.69,19,9.79,28.27,15.15,10,5.78,19.88,11.93,29.32,18.28l5.51,3.7-.87-6.58a389.24,389.24,0,0,0-9.42-48.4l-.73-2.76Zm-150.91,2.05a389.06,389.06,0,0,0-9.44,48.44l-.87,6.58,5.51-3.71c9.49-6.39,19.42-12.58,29.49-18.4,9.61-5.56,19.68-10.56,28.57-15l6.19-3.07L235,148.66A352.75,352.75,0,0,0,185.57,134l-2.79-.59Zm77.2-99.58a44.12,44.12,0,0,0-21.55,5.85,72.16,72.16,0,0,0-19.26,16.26,134.14,134.14,0,0,0-16.65,25A226,226,0,0,0,188,116.31L187,119.46l3.25.73a399.46,399.46,0,0,1,68.1,22.29l1.17.5,1.17-.5a398.11,398.11,0,0,1,67.69-22.19l3.24-.73-1.07-3.15a226.25,226.25,0,0,0-13.76-32.59,134.28,134.28,0,0,0-16.66-25.07,72.2,72.2,0,0,0-19.27-16.28A44.12,44.12,0,0,0,259.26,36.61Z"/>
  <polygon class="cls-2" points="258.51 190.36 273.05 234.98 318.97 225.26 287.6 260.17 318.97 295.08 273.05 285.36 258.51 329.99 243.96 285.36 198.04 295.08 229.42 260.17 198.04 225.26 243.96 234.98 258.51 190.36"/>
</svg>
